<svg width="138" height="37" viewBox="0 0 138 37" fill="none" xmlns="http://www.w3.org/2000/svg">
<rect width="37" height="37" rx="8.22222" fill="#F49D0D"/>
<path d="M15.8143 28.812L14.5672 27.5529L21.1022 20.982L22.3492 22.241L15.8143 28.812ZM12.5408 26.0781L11.2938 24.819L20.107 15.9579L21.354 17.2169L12.5408 26.0781ZM10.5144 22.0732L9.26733 20.8141L15.1188 14.9387L16.3659 16.1977L10.5144 22.0732Z" fill="#020202"/>
<path d="M18.5001 8.43972L26.6298 12.0369V17.4927C26.6458 19.9795 25.8652 22.406 24.4023 24.417C22.9394 26.428 20.871 27.9178 18.5001 28.6681C16.1302 27.92 14.0621 26.4325 12.5991 24.4236C11.1361 22.4146 10.355 19.9899 10.3704 17.5047V12.0609L18.5001 8.4637M18.5001 6.50921L8.60774 10.9218V17.5047C8.58412 20.4335 9.52116 23.2892 11.2753 25.6346C13.0295 27.98 15.5042 29.6858 18.3202 30.4907H18.68C21.4861 29.6886 23.9535 27.9918 25.7067 25.6585C27.4599 23.3253 28.4029 20.4832 28.3925 17.5647V10.9218L18.5001 6.50921Z" fill="white"/>
<path d="M21.7256 23.3443C22.666 23.3443 23.4283 22.582 23.4283 21.6416C23.4283 20.7013 22.666 19.9389 21.7256 19.9389C20.7853 19.9389 20.0229 20.7013 20.0229 21.6416C20.0229 22.582 20.7853 23.3443 21.7256 23.3443Z" fill="white"/>
<path d="M20.7184 18.344C21.6588 18.344 22.4211 17.5817 22.4211 16.6414C22.4211 15.701 21.6588 14.9387 20.7184 14.9387C19.7781 14.9387 19.0157 15.701 19.0157 16.6414C19.0157 17.5817 19.7781 18.344 20.7184 18.344Z" fill="white"/>
<path d="M15.7301 17.3248C16.6705 17.3248 17.4328 16.5625 17.4328 15.6221C17.4328 14.6817 16.6705 13.9194 15.7301 13.9194C14.7898 13.9194 14.0275 14.6817 14.0275 15.6221C14.0275 16.5625 14.7898 17.3248 15.7301 17.3248Z" fill="white"/>
<path d="M50.1461 7.76469L54.1476 20.3431H54.3012L58.3107 7.76469H62.191L56.4838 24.3203H51.973L47.6131 10.0928H41.9221V7.76469H50.1461Z" fill="white"/>
<path d="M66.2814 24.5548C65.4891 24.5548 64.7832 24.4173 64.1634 24.1425C63.5436 23.8623 63.0532 23.45 62.6921 22.9057C62.3365 22.356 62.1586 21.6715 62.1586 20.8524C62.1586 20.1626 62.2853 19.5832 62.5386 19.1144C62.7918 18.6455 63.1368 18.2683 63.5733 17.9826C64.0098 17.697 64.5056 17.4814 65.0607 17.3359C65.6212 17.1904 66.2086 17.088 66.823 17.0287C67.5451 16.9533 68.1272 16.8832 68.5691 16.8186C69.011 16.7485 69.3317 16.6461 69.5311 16.5114C69.7305 16.3766 69.8302 16.1772 69.8302 15.9132V15.8647C69.8302 15.3527 69.6685 14.9566 69.3451 14.6764C69.0272 14.3961 68.5745 14.256 67.987 14.256C67.3673 14.256 66.8742 14.3934 66.5077 14.6683C66.1412 14.9377 65.8987 15.2773 65.7802 15.6868L62.5951 15.4281C62.7568 14.6737 63.0748 14.0216 63.549 13.4719C64.0233 12.9168 64.635 12.491 65.3841 12.1946C66.1385 11.8928 67.0116 11.7419 68.0032 11.7419C68.693 11.7419 69.3532 11.8228 69.9837 11.9844C70.6197 12.1461 71.1828 12.3967 71.6733 12.7362C72.1691 13.0758 72.5598 13.5123 72.8454 14.0458C73.131 14.574 73.2739 16.0802 73.2739 16.8186V21.006V24.3203H70.008V22.5985H69.911C69.7116 22.9865 69.4448 23.3287 69.1107 23.6251C68.7766 23.9162 68.3751 24.1452 67.9062 24.3123C67.4373 24.4739 66.8957 24.5548 66.2814 24.5548ZM67.2676 22.1781C67.7742 22.1781 68.2215 22.0784 68.6095 21.879C68.9975 21.6742 69.302 21.3994 69.523 21.0545C69.7439 20.7096 69.8544 20.3189 69.8544 19.8823V18.5647C69.7466 18.6347 69.5984 18.6994 69.4098 18.7587C69.2266 18.8126 69.0191 18.8638 68.7873 18.9123C68.5556 18.9554 68.3239 18.9958 68.0921 19.0335C67.8604 19.0659 67.6502 19.0955 67.4616 19.1224C67.0574 19.1817 66.7044 19.276 66.4026 19.4054C66.1008 19.5347 65.8664 19.7099 65.6993 19.9308C65.5323 20.1464 65.4487 20.4159 65.4487 20.7392C65.4487 21.2081 65.6185 21.5665 65.958 21.8144C66.3029 22.0569 66.7394 22.1781 67.2676 22.1781Z" fill="white"/>
<path d="M79.3893 17.1419V24.3203H75.9456V18.6614V18.4777V11.9036H79.2276V14.0943H79.3731C79.6479 13.3722 80.1087 12.8009 80.7554 12.3806C81.4021 11.9548 82.1863 11.7419 83.1078 11.7419C83.9701 11.7419 84.7219 11.9306 85.3632 12.3078C86.0045 12.685 86.503 13.224 86.8587 13.9246C87.2144 14.6198 87.3922 15.4497 87.3922 16.4144V24.3203H83.9485V17.0287C83.9539 16.2689 83.7599 15.6761 83.3665 15.2503C82.9731 14.8192 82.4315 14.6036 81.7416 14.6036C81.2782 14.6036 80.8686 14.7033 80.5129 14.9027C80.1626 15.1021 79.8878 15.3931 79.6884 15.7758C79.4943 16.153 79.3946 16.6084 79.3893 17.1419Z" fill="white"/>
<path d="M96.7108 11.9036V14.4904H89.2333V11.9036H96.7108ZM90.9309 8.92876H94.3746V20.5048C94.3746 20.8227 94.4231 21.0706 94.5201 21.2485C94.6171 21.4209 94.7519 21.5422 94.9243 21.6123C95.1022 21.6823 95.307 21.7174 95.5387 21.7174C95.7004 21.7174 95.862 21.7039 96.0237 21.6769C96.1854 21.6446 96.3094 21.6203 96.3956 21.6042L96.9372 24.1667C96.7647 24.2206 96.5222 24.2826 96.2097 24.3527C95.8971 24.4281 95.5171 24.4739 95.0698 24.4901C94.2399 24.5224 93.5124 24.412 92.8872 24.1587C92.2674 23.9054 91.7851 23.512 91.4402 22.9784C91.0953 22.4449 90.9255 21.7712 90.9309 20.9575V8.92876Z" fill="white"/>
<path d="M102.495 24.5548C101.703 24.5548 100.997 24.4173 100.377 24.1425C99.7571 23.8623 99.2667 23.45 98.9056 22.9057C98.5499 22.356 98.3721 21.6715 98.3721 20.8524C98.3721 20.1626 98.4987 19.5832 98.752 19.1144C99.0053 18.6455 99.3502 18.2683 99.7867 17.9826C100.223 17.697 100.719 17.4814 101.274 17.3359C101.835 17.1904 102.422 17.088 103.036 17.0287C103.759 16.9533 104.341 16.8832 104.783 16.8186C105.224 16.7485 105.545 16.6461 105.745 16.5114C105.944 16.3766 106.044 16.1772 106.044 15.9132V15.8647C106.044 15.3527 105.882 14.9566 105.559 14.6764C105.241 14.3961 104.788 14.256 104.2 14.256C103.581 14.256 103.088 14.3934 102.721 14.6683C102.355 14.9377 102.112 15.2773 101.994 15.6868L98.8086 15.4281C98.9703 14.6737 99.2882 14.0216 99.7625 13.4719C100.237 12.9168 100.848 12.491 101.598 12.1946C102.352 11.8928 103.225 11.7419 104.217 11.7419C104.906 11.7419 105.567 11.8228 106.197 11.9844C106.833 12.1461 107.396 12.3967 107.887 12.7362C108.383 13.0758 108.773 13.5123 109.059 14.0458C109.344 14.574 109.487 15.2072 109.487 15.9455V24.3203H106.221V22.5985H106.124C105.925 22.9865 105.658 23.3287 105.324 23.6251C104.99 23.9162 104.589 24.1452 104.12 24.3123C103.651 24.4739 103.109 24.5548 102.495 24.5548ZM103.481 22.1781C103.988 22.1781 104.435 22.0784 104.823 21.879C105.211 21.6742 105.515 21.3994 105.736 21.0545C105.957 20.7096 106.068 20.3189 106.068 19.8823V18.5647C105.96 18.6347 105.812 18.6994 105.623 18.7587C105.44 18.8126 105.233 18.8638 105.001 18.9123C104.769 18.9554 104.537 18.9958 104.306 19.0335C104.074 19.0659 103.864 19.0955 103.675 19.1224C103.271 19.1817 102.918 19.276 102.616 19.4054C102.314 19.5347 102.08 19.7099 101.913 19.9308C101.746 20.1464 101.662 20.4159 101.662 20.7392C101.662 21.2081 101.832 21.5665 102.171 21.8144C102.516 22.0569 102.953 22.1781 103.481 22.1781Z" fill="white"/>
<path d="M117.753 29.2353C116.637 29.2353 115.681 29.0817 114.883 28.7745C114.091 28.4727 113.461 28.0605 112.992 27.5377C112.523 27.0149 112.218 26.4275 112.078 25.7754L115.263 25.347C115.36 25.5949 115.514 25.8266 115.724 26.0422C115.934 26.2578 116.212 26.4302 116.557 26.5596C116.907 26.6943 117.333 26.7617 117.834 26.7617C118.583 26.7617 119.2 26.5784 119.685 26.212C120.175 25.8509 120.421 25.2446 120.421 24.3931V22.1215H120.275C120.124 22.4665 119.898 22.7925 119.596 23.0997C119.294 23.4069 118.906 23.6575 118.432 23.8515C117.958 24.0455 117.392 24.1425 116.734 24.1425C115.802 24.1425 114.953 23.9269 114.188 23.4958C113.428 23.0593 112.822 22.3937 112.369 21.4991C111.922 20.5991 111.698 19.462 111.698 18.0877C111.698 16.6811 111.927 15.5063 112.385 14.5632C112.843 13.6201 113.452 12.9141 114.212 12.4452C114.978 11.9764 115.816 11.7419 116.726 11.7419C117.422 11.7419 118.004 11.8605 118.472 12.0976C118.941 12.3294 119.319 12.6204 119.604 12.9707C119.895 13.3156 120.119 13.6551 120.275 13.9892H120.404V11.9036H123.824V24.4416C123.824 25.4979 123.565 26.3817 123.048 27.0931C122.531 27.8045 121.814 28.338 120.898 28.6937C119.987 29.0548 118.939 29.2353 117.753 29.2353ZM117.826 21.5557C118.381 21.5557 118.85 21.4183 119.232 21.1434C119.62 20.8632 119.917 20.4644 120.122 19.947C120.332 19.4242 120.437 18.7991 120.437 18.0716C120.437 17.344 120.334 16.7135 120.13 16.1799C119.925 15.641 119.628 15.2234 119.24 14.927C118.852 14.6305 118.381 14.4823 117.826 14.4823C117.26 14.4823 116.783 14.6359 116.395 14.9431C116.007 15.2449 115.713 15.6653 115.514 16.2042C115.314 16.7431 115.215 17.3656 115.215 18.0716C115.215 18.7883 115.314 19.4081 115.514 19.9308C115.719 20.4482 116.012 20.8497 116.395 21.1353C116.783 21.4156 117.26 21.5557 117.826 21.5557Z" fill="white"/>
<path d="M132.223 24.5629C130.946 24.5629 129.846 24.3042 128.925 23.7868C128.009 23.2641 127.303 22.5257 126.807 21.5718C126.311 20.6126 126.063 19.4781 126.063 18.1686C126.063 16.8913 126.311 15.7704 126.807 14.8057C127.303 13.841 128.001 13.0892 128.901 12.5503C129.806 12.0114 130.868 11.7419 132.086 11.7419C132.905 11.7419 133.667 11.874 134.373 12.138C135.085 12.3967 135.704 12.7874 136.233 13.3102C136.766 13.8329 137.181 14.4904 137.478 15.2826C137.774 16.0695 137.922 16.991 137.922 18.0473V18.9931H127.437V16.859H134.681C134.681 16.3632 134.573 15.924 134.357 15.5413C134.142 15.1587 133.842 14.8596 133.46 14.644C133.083 14.4231 132.643 14.3126 132.142 14.3126C131.619 14.3126 131.156 14.4338 130.752 14.6764C130.353 14.9135 130.04 15.2341 129.814 15.6383C129.588 16.0371 129.472 16.4817 129.466 16.9722V19.0012C129.466 19.6156 129.58 20.1464 129.806 20.5937C130.038 21.041 130.364 21.3859 130.784 21.6284C131.204 21.8709 131.703 21.9922 132.28 21.9922C132.662 21.9922 133.013 21.9383 133.331 21.8305C133.648 21.7227 133.921 21.5611 134.147 21.3455C134.373 21.1299 134.546 20.8659 134.664 20.5533L137.849 20.7635C137.688 21.5287 137.356 22.197 136.855 22.7682C136.359 23.3341 135.718 23.776 134.931 24.094C134.15 24.4066 133.247 24.5629 132.223 24.5629Z" fill="white"/>
<path d="M75.9456 18.6614V18.4777L73.2739 16.8186V21.006L75.9456 18.6614Z" fill="white"/>
</svg>
