<svg width="138" height="37" viewBox="0 0 138 37" fill="none" xmlns="http://www.w3.org/2000/svg">
<rect width="37" height="37" rx="8.22222" fill="#F4B860"/>
<path d="M15.8143 28.8118L14.5673 27.5527L21.1023 20.9818L22.3493 22.2408L15.8143 28.8118ZM12.5409 26.0779L11.2938 24.8188L20.107 15.9577L21.3541 17.2167L12.5409 26.0779ZM10.5144 22.073L9.2674 20.8139L15.1189 14.9385L16.3659 16.1975L10.5144 22.073Z" fill="#020202"/>
<path d="M18.5001 8.44027L26.6299 12.0375V17.4933C26.6459 19.98 25.8653 22.4066 24.4023 24.4176C22.9394 26.4286 20.871 27.9183 18.5001 28.6687C16.1302 27.9206 14.0622 26.4331 12.5991 24.4241C11.1361 22.4152 10.3551 19.9904 10.3704 17.5053V12.0615L18.5001 8.46426M18.5001 6.50977L8.60777 10.9224V17.5053C8.58415 20.434 9.52119 23.2898 11.2754 25.6352C13.0296 27.9806 15.5042 29.6864 18.3203 30.4912H18.68C21.4861 29.6891 23.9535 27.9924 25.7067 25.6591C27.4599 23.3258 28.403 20.4837 28.3925 17.5652V10.9224L18.5001 6.50977Z" fill="white"/>
<path d="M21.7256 23.3448C22.666 23.3448 23.4283 22.5825 23.4283 21.6421C23.4283 20.7018 22.666 19.9395 21.7256 19.9395C20.7853 19.9395 20.0229 20.7018 20.0229 21.6421C20.0229 22.5825 20.7853 23.3448 21.7256 23.3448Z" fill="white"/>
<path d="M20.7185 18.3438C21.6588 18.3438 22.4212 17.5815 22.4212 16.6412C22.4212 15.7008 21.6588 14.9385 20.7185 14.9385C19.7781 14.9385 19.0158 15.7008 19.0158 16.6412C19.0158 17.5815 19.7781 18.3438 20.7185 18.3438Z" fill="white"/>
<path d="M15.7302 17.3253C16.6706 17.3253 17.4329 16.563 17.4329 15.6226C17.4329 14.6822 16.6706 13.9199 15.7302 13.9199C14.7898 13.9199 14.0275 14.6822 14.0275 15.6226C14.0275 16.563 14.7898 17.3253 15.7302 17.3253Z" fill="white"/>
<path d="M54.6641 26.0036L48.7727 5.9091H41.9221V2.7666H52.0822L57.8915 21.8726L63.7975 2.7666H68.3158L61.2157 26.0036H54.6641Z" fill="black"/>
<path d="M76.6666 26.4877C74.9131 26.4877 73.3747 26.095 72.0515 25.3097C70.7283 24.5244 69.6955 23.4432 68.9532 22.0662C68.2217 20.6784 67.8559 19.0863 67.8559 17.2897C67.8559 15.4716 68.2325 13.8741 68.9855 12.4971C69.7386 11.1093 70.7767 10.0282 72.0999 9.25359C73.4231 8.47903 74.9454 8.09174 76.6666 8.09174C78.4202 8.09174 79.9585 8.48441 81.2818 9.26973C82.6157 10.0551 83.6539 11.1416 84.3962 12.5294C85.1384 13.9064 85.5096 15.4932 85.5096 17.2897C85.5096 19.097 85.1331 20.6946 84.38 22.0823C83.6377 23.4593 82.5996 24.5405 81.2656 25.3258C79.9424 26.1004 78.4094 26.4877 76.6666 26.4877ZM76.6666 22.3889C78.0759 22.3889 79.1248 21.9156 79.8133 20.9689C80.5126 20.0115 80.8622 18.7851 80.8622 17.2897C80.8622 15.7406 80.5072 14.5034 79.7972 13.5783C79.0979 12.6531 78.0544 12.1905 76.6666 12.1905C75.7092 12.1905 74.9239 12.4056 74.3107 12.836C73.6975 13.2663 73.2402 13.8633 72.939 14.6271C72.6486 15.391 72.5033 16.2785 72.5033 17.2897C72.5033 18.8496 72.853 20.0921 73.5522 21.0173C74.2622 21.9317 75.3004 22.3889 76.6666 22.3889Z" fill="black"/>
<path d="M89.0582 26.0036V8.57585H92.931V12.836L92.5114 12.2873C92.7374 11.6849 93.0386 11.1362 93.4151 10.6414C93.7916 10.1465 94.2542 9.7377 94.8029 9.41496C95.2224 9.15677 95.6796 8.95775 96.1745 8.8179C96.6694 8.66729 97.1804 8.57585 97.7075 8.54357C98.2346 8.50054 98.7618 8.5113 99.2889 8.57585L102.663 12.9651C102.207 13.2163 98.24 12.4756 97.5945 12.5294C96.9598 12.5724 96.3843 12.7176 95.8679 12.9651C95.3515 13.2017 94.9158 13.5191 94.5608 13.9171C94.2058 14.3044 93.9369 14.767 93.754 15.3049C93.5711 15.832 93.4797 16.4291 93.4797 17.0961V26.0036H89.0582Z" fill="black"/>
<path d="M109.183 34.2333C108.194 34.2333 107.252 34.072 106.359 33.7492C105.466 33.4373 104.665 32.9962 103.955 32.426C103.256 31.8666 102.686 31.2104 102.244 30.4573L106.311 28.4887C106.591 29.005 106.989 29.3977 107.505 29.6666C108.032 29.9356 108.602 30.0701 109.216 30.0701C109.872 30.0701 110.49 29.9571 111.071 29.7312C111.652 29.516 112.115 29.1879 112.459 28.7468C112.814 28.3165 112.981 27.7786 112.959 27.1332V22.0662H113.508V8.57585H117.348V27.1977C117.348 27.628 117.327 28.0314 117.284 28.408C117.252 28.7952 117.187 29.1772 117.09 29.5537C116.811 30.6187 116.289 31.4955 115.525 32.184C114.772 32.8725 113.847 33.3835 112.75 33.717C111.652 34.0612 110.463 34.2333 109.183 34.2333ZM108.796 26.4877C107.193 26.4877 105.789 26.0843 104.584 25.2774C103.379 24.4706 102.438 23.3733 101.76 21.9855C101.093 20.5978 100.76 19.0325 100.76 17.2897C100.76 15.5147 101.099 13.9386 101.776 12.5616C102.465 11.1739 103.428 10.0819 104.665 9.28587C105.902 8.48978 107.354 8.09174 109.022 8.09174C110.679 8.09174 112.072 8.49516 113.201 9.302C114.331 10.1088 115.186 11.2061 115.767 12.5939C116.348 13.9817 116.638 15.5469 116.638 17.2897C116.638 19.0325 116.343 20.5978 115.751 21.9855C115.17 23.3733 114.299 24.4706 113.137 25.2774C111.975 26.0843 110.528 26.4877 108.796 26.4877ZM109.506 22.5826C110.485 22.5826 111.265 22.362 111.846 21.921C112.438 21.4799 112.862 20.8613 113.121 20.0652C113.379 19.2692 113.508 18.344 113.508 17.2897C113.508 16.2354 113.379 15.3103 113.121 14.5142C112.862 13.7181 112.448 13.0995 111.878 12.6585C111.319 12.2174 110.582 11.9968 109.667 11.9968C108.688 11.9968 107.882 12.2389 107.247 12.723C106.623 13.1963 106.16 13.8364 105.859 14.6433C105.558 15.4394 105.407 16.3215 105.407 17.2897C105.407 18.2687 105.552 19.1616 105.843 19.9684C106.133 20.7645 106.58 21.3992 107.182 21.8726C107.785 22.3459 108.559 22.5826 109.506 22.5826Z" fill="black"/>
<path d="M129.968 26.4877C128.182 26.4877 126.606 26.1058 125.24 25.342C123.885 24.5674 122.82 23.5078 122.045 22.163C121.281 20.8075 120.899 19.2584 120.899 17.5156C120.899 15.6115 121.276 13.9548 122.029 12.5455C122.782 11.1362 123.82 10.0443 125.143 9.26973C126.467 8.48441 127.989 8.09174 129.71 8.09174C131.539 8.09174 133.093 8.52206 134.374 9.38269C135.654 10.2433 136.6 11.4536 137.214 13.0135C137.827 14.5734 138.042 16.4076 137.859 18.5161H133.518V16.9024C133.518 15.1274 133.233 13.8526 132.663 13.078C132.104 12.2927 131.184 11.9 129.904 11.9C128.408 11.9 127.306 12.3572 126.596 13.2717C125.896 14.1753 125.547 15.5147 125.547 17.2897C125.547 18.9142 125.896 20.1728 126.596 21.0657C127.306 21.9479 128.344 22.3889 129.71 22.3889C130.571 22.3889 131.308 22.2007 131.921 21.8242C132.534 21.4476 133.002 20.9044 133.325 20.1943L137.714 21.453C137.058 23.0452 136.02 24.2823 134.599 25.1645C133.19 26.0466 131.646 26.4877 129.968 26.4877ZM124.191 18.5161V15.2565H135.745V18.5161H124.191Z" fill="black"/>
</svg>
